<?xml version="1.0" encoding="UTF-8" standalone="no" ?>
<!DOCTYPE svg PUBLIC "-//W3C//DTD SVG 1.1//EN" "http://www.w3.org/Graphics/SVG/1.1/DTD/svg11.dtd">
<svg xmlns="http://www.w3.org/2000/svg" xmlns:xlink="http://www.w3.org/1999/xlink" version="1.1" width="132" height="29" viewBox="0 0 132 29" xml:space="preserve">
<desc>Created with Fabric.js 5.3.0</desc>
<defs>
</defs>
<g transform="matrix(0.4394340217 0 0 0.4394340152 66.1348202692 12.7435864394)" id="hM7x8Y94p3xgJJO4v-peR"  >
<g style=""   >
		<g transform="matrix(1 0 0 1 -129.994725 -7.817405)" id="jRCtAVdHEFeTmktaN5xcg"  >
<path style="stroke: none; stroke-width: 1; stroke-dasharray: none; stroke-linecap: butt; stroke-dashoffset: 0; stroke-linejoin: miter; stroke-miterlimit: 4; fill: rgb(255,229,191); fill-rule: nonzero; opacity: 1;"  transform=" translate(-20.505275, -21.182595)" d="M 37.3792 35.8232 L 27.1902 35.8232 L 24.9536 30.5446 L 23.6116 34.1799 L 20.5798 25.9134 L 17.4983 34.1799 L 16.1066 30.5446 L 14.1682 35.8232 L 3.63135 35.8232 L 20.6792 6.54199 L 37.3792 35.8232 Z" stroke-linecap="round" />
</g>
		<g transform="matrix(1 0 0 1 -118.33055 -23.202375)" id="BnDTvIjTqoAuiqSddsFV3"  >
<path style="stroke: none; stroke-width: 1; stroke-dasharray: none; stroke-linecap: butt; stroke-dashoffset: 0; stroke-linejoin: miter; stroke-miterlimit: 4; fill: rgb(237,145,85); fill-rule: nonzero; opacity: 1;"  transform=" translate(-32.16945, -5.797625)" d="M 32.1695 9.51981 C 34.2252 9.51981 35.8916 7.85333 35.8916 5.79763 C 35.8916 3.74192 34.2252 2.07544 32.1695 2.07544 C 30.1137 2.07544 28.4473 3.74192 28.4473 5.79763 C 28.4473 7.85333 30.1137 9.51981 32.1695 9.51981 Z" stroke-linecap="round" />
</g>
		<g transform="matrix(1 0 0 1 -121.96325 -0.46325)" id="mFRFqMI28pCyJhRAP6Wdr"  >
<path style="stroke: none; stroke-width: 1; stroke-dasharray: none; stroke-linecap: butt; stroke-dashoffset: 0; stroke-linejoin: miter; stroke-miterlimit: 4; fill: rgb(0,0,0); fill-rule: nonzero; opacity: 1;"  transform=" translate(-28.53675, -28.53675)" d="M 0 5.1885 C 0 2.32297 2.32297 0 5.1885 0 L 51.885 0 C 54.7505 0 57.0735 2.32297 57.0735 5.1885 L 57.0735 51.885 C 57.0735 54.7505 54.7505 57.0735 51.885 57.0735 L 5.1885 57.0735 C 2.32297 57.0735 0 54.7505 0 51.885 L 0 5.1885 Z" stroke-linecap="round" />
</g>
		<g transform="matrix(1 0 0 1 -122.21105 1.5217)" id="WeITbLv6Yk15q2SG0zA96"  >
<path style="stroke: none; stroke-width: 1; stroke-dasharray: none; stroke-linecap: butt; stroke-dashoffset: 0; stroke-linejoin: miter; stroke-miterlimit: 4; fill: rgb(255,229,191); fill-rule: nonzero; opacity: 1;"  transform=" translate(-28.28895, -30.5217)" d="M 45.1629 45.1623 L 34.9739 45.1623 L 32.7373 39.8837 L 31.3953 43.519 L 28.3635 35.2525 L 25.282 43.519 L 23.8903 39.8837 L 21.9519 45.1623 L 11.415 45.1623 L 28.4629 15.8811 L 45.1629 45.1623 Z" stroke-linecap="round" />
</g>
		<g transform="matrix(1 0 0 1 -110.5478 -13.86325)" id="ClBWlxvZ9G0eElXvvjL7W"  >
<path style="stroke: none; stroke-width: 1; stroke-dasharray: none; stroke-linecap: butt; stroke-dashoffset: 0; stroke-linejoin: miter; stroke-miterlimit: 4; fill: rgb(237,145,85); fill-rule: nonzero; opacity: 1;"  transform=" translate(-39.9522, -15.13675)" d="M 39.9522 18.8589 C 42.0079 18.8589 43.6744 17.1924 43.6744 15.1367 C 43.6744 13.081 42.0079 11.4146 39.9522 11.4146 C 37.8965 11.4146 36.23 13.081 36.23 15.1367 C 36.23 17.1924 37.8965 18.8589 39.9522 18.8589 Z" stroke-linecap="round" />
</g>
		<g transform="matrix(1 0 0 1 -66.36645 -0.7937)" id="qcYSyKu3mBVzyk5UOsB1w"  >
<path style="stroke: none; stroke-width: 1; stroke-dasharray: none; stroke-linecap: butt; stroke-dashoffset: 0; stroke-linejoin: miter; stroke-miterlimit: 4; fill: rgb(0,0,0); fill-rule: nonzero; opacity: 1;"  transform=" translate(-84.13355, -28.2063)" d="M 72.1201 45.856 L 72.1201 10.5566 L 96.147 10.5566 L 96.147 17.1719 L 80.6936 17.1719 L 80.6936 25.5866 L 94.0301 25.5866 L 94.0301 32.3078 L 80.6936 32.3078 L 80.6936 45.856 L 72.1201 45.856 Z" stroke-linecap="round" />
</g>
		<g transform="matrix(1 0 0 1 -44.387 -1.40232)" id="GWiv49unPbcuH7h3YZ_s3"  >
<path style="stroke: none; stroke-width: 1; stroke-dasharray: none; stroke-linecap: butt; stroke-dashoffset: 0; stroke-linejoin: miter; stroke-miterlimit: 4; fill: rgb(0,0,0); fill-rule: nonzero; opacity: 1;"  transform=" translate(-106.113, -27.59768)" d="M 102.197 45.856 L 102.197 19.4476 L 110.082 19.4476 L 110.135 45.856 L 102.197 45.856 Z M 102.038 15.4255 L 102.038 9.33936 L 110.188 9.33936 L 110.188 15.4255 L 102.038 15.4255 Z" stroke-linecap="round" />
</g>
		<g transform="matrix(1 0 0 1 -24.2955 3.06965)" id="v4shzZsDxLUMSK9IeQvxE"  >
<path style="stroke: none; stroke-width: 1; stroke-dasharray: none; stroke-linecap: butt; stroke-dashoffset: 0; stroke-linejoin: miter; stroke-miterlimit: 4; fill: rgb(0,0,0); fill-rule: nonzero; opacity: 1;"  transform=" translate(-126.2045, -32.06965)" d="M 117.181 45.856 L 117.181 21.882 C 117.675 21.4587 118.557 20.9824 119.827 20.4531 C 121.097 19.8886 122.544 19.3947 124.167 18.9713 C 125.825 18.5126 127.483 18.2833 129.141 18.2833 C 130.8 18.2833 132.105 18.4068 133.058 18.6538 C 134.01 18.9007 134.734 19.2183 135.228 19.6064 L 135.228 25.3749 C 134.628 25.2338 133.869 25.128 132.952 25.0574 C 132.035 24.9868 131.082 24.9516 130.094 24.9516 C 129.106 24.9163 128.171 24.9163 127.289 24.9516 C 126.407 24.9868 125.666 25.0574 125.066 25.1632 L 125.066 45.856 L 117.181 45.856 Z" stroke-linecap="round" />
</g>
		<g transform="matrix(1 0 0 1 -0.2594560288 3.4137)" id="pZs7gdWfSDZoTLHHvAEii"  >
<path style="stroke: none; stroke-width: 1; stroke-dasharray: none; stroke-linecap: butt; stroke-dashoffset: 0; stroke-linejoin: miter; stroke-miterlimit: 4; fill: rgb(0,0,0); fill-rule: nonzero; opacity: 1;"  transform=" translate(-150.2405439712, -32.4137)" d="M 151.007 46.6499 C 148.325 46.6499 145.944 46.103 143.862 45.0093 C 141.816 43.8802 140.211 42.2926 139.046 40.2462 C 137.917 38.1646 137.353 35.6949 137.353 32.837 C 137.353 28.1798 138.499 24.5811 140.793 22.0408 C 143.121 19.4652 146.438 18.1775 150.742 18.1775 C 153.706 18.1775 156.087 18.8125 157.887 20.0827 C 159.721 21.3528 161.062 23.2051 161.909 25.6396 C 162.756 28.074 163.161 31.0377 163.126 34.5306 L 142.751 34.5306 L 141.904 29.5029 L 156.617 29.5029 L 155.452 31.9903 C 155.417 29.1325 155.011 27.1214 154.235 25.9571 C 153.459 24.7928 152.189 24.2106 150.425 24.2106 C 149.437 24.2106 148.537 24.4576 147.726 24.9516 C 146.949 25.4455 146.332 26.2746 145.873 27.4389 C 145.45 28.5679 145.238 30.138 145.238 32.149 C 145.238 34.6893 145.838 36.6475 147.038 38.0235 C 148.272 39.3995 150.231 40.0875 152.912 40.0875 C 153.9 40.0875 154.87 39.9816 155.823 39.7699 C 156.811 39.5229 157.728 39.2407 158.575 38.9232 C 159.422 38.6056 160.145 38.3234 160.745 38.0764 L 160.745 44.8505 C 159.474 45.3797 158.046 45.8031 156.458 46.1206 C 154.905 46.4735 153.088 46.6499 151.007 46.6499 Z" stroke-linecap="round" />
</g>
		<g transform="matrix(1 0 0 1 27.869 3.4401)" id="bMmQiyGjT1dDAUyXP-SL_"  >
<path style="stroke: none; stroke-width: 1; stroke-dasharray: none; stroke-linecap: butt; stroke-dashoffset: 0; stroke-linejoin: miter; stroke-miterlimit: 4; fill: rgb(0,0,0); fill-rule: nonzero; opacity: 1;"  transform=" translate(-178.369, -32.4401)" d="M 181.148 46.544 C 179.242 46.544 177.443 46.2618 175.749 45.6973 C 174.056 45.1328 172.556 44.286 171.251 43.157 C 169.946 42.028 168.922 40.599 168.181 38.8702 C 167.441 37.1414 167.07 35.1304 167.07 32.837 C 167.07 30.4026 167.423 28.2857 168.129 26.4863 C 168.834 24.6517 169.804 23.1345 171.039 21.935 C 172.309 20.7354 173.791 19.8357 175.485 19.2359 C 177.178 18.6361 179.048 18.3362 181.095 18.3362 C 182.541 18.3362 184.023 18.495 185.54 18.8125 C 187.093 19.0948 188.451 19.5005 189.615 20.0297 L 189.615 26.8039 C 188.38 26.2393 187.163 25.7807 185.963 25.4279 C 184.799 25.0398 183.6 24.8457 182.365 24.8457 C 180.142 24.8457 178.343 25.4102 176.967 26.5392 C 175.626 27.633 174.956 29.4323 174.956 31.9374 C 174.956 34.5835 175.555 36.5769 176.755 37.9176 C 177.955 39.2583 179.948 39.9287 182.735 39.9287 C 184.041 39.9287 185.293 39.6994 186.493 39.2407 C 187.728 38.782 188.786 38.3057 189.668 37.8118 L 189.668 44.533 C 188.433 45.168 187.145 45.662 185.805 46.0148 C 184.464 46.3676 182.912 46.544 181.148 46.544 Z" stroke-linecap="round" />
</g>
		<g transform="matrix(1 0 0 1 55.5985 3.4666)" id="FyMczGie-EGhYhNNqq3Zn"  >
<path style="stroke: none; stroke-width: 1; stroke-dasharray: none; stroke-linecap: butt; stroke-dashoffset: 0; stroke-linejoin: miter; stroke-miterlimit: 4; fill: rgb(0,0,0); fill-rule: nonzero; opacity: 1;"  transform=" translate(-206.0985, -32.4666)" d="M 205.49 46.6499 C 203.867 46.6499 202.332 46.4911 200.885 46.1736 C 199.474 45.8913 198.221 45.415 197.128 44.7447 C 196.069 44.039 195.24 43.1041 194.64 41.9398 C 194.041 40.7402 193.741 39.2583 193.741 37.4942 C 193.741 35.836 194.076 34.3894 194.746 33.1546 C 195.452 31.9197 196.51 30.9671 197.922 30.2968 C 199.333 29.6264 201.115 29.2912 203.267 29.2912 C 204.466 29.2912 205.631 29.4147 206.76 29.6617 C 207.889 29.9086 208.894 30.2438 209.776 30.6672 C 210.694 31.0906 211.417 31.5493 211.946 32.0432 L 212.264 35.8536 C 211.558 35.4303 210.711 35.0951 209.723 34.8481 C 208.735 34.6011 207.677 34.4776 206.548 34.4776 C 204.819 34.4776 203.549 34.7423 202.738 35.2715 C 201.961 35.7654 201.573 36.5593 201.573 37.653 C 201.573 38.3234 201.767 38.9232 202.155 39.4524 C 202.543 39.9816 203.055 40.3874 203.69 40.6696 C 204.36 40.9519 205.048 41.093 205.754 41.093 C 207.553 41.093 208.806 40.9695 209.512 40.7225 C 210.253 40.4756 210.623 39.9816 210.623 39.2407 L 210.623 29.3971 C 210.623 27.7741 210.094 26.6098 209.035 25.9042 C 208.012 25.1632 206.548 24.7928 204.643 24.7928 C 203.09 24.7928 201.52 25.075 199.933 25.6396 C 198.38 26.1688 197.11 26.8215 196.122 27.5977 L 196.122 20.6119 C 197.039 20.0474 198.451 19.5182 200.356 19.0242 C 202.296 18.5303 204.466 18.2833 206.865 18.2833 C 207.712 18.2833 208.647 18.3539 209.67 18.495 C 210.694 18.6361 211.717 18.9007 212.74 19.2888 C 213.763 19.6416 214.698 20.1709 215.545 20.8765 C 216.427 21.5821 217.132 22.4818 217.662 23.5756 C 218.191 24.6693 218.456 26.0277 218.456 27.6506 L 218.403 40.2991 C 218.403 41.8163 217.891 43.0511 216.868 44.0037 C 215.845 44.9211 214.363 45.5914 212.422 46.0148 C 210.517 46.4382 208.206 46.6499 205.49 46.6499 Z" stroke-linecap="round" />
</g>
		<g transform="matrix(1 0 0 1 95.701 3.0961)" id="huqFK8_7HIq_YcAndEYfK"  >
<path style="stroke: none; stroke-width: 1; stroke-dasharray: none; stroke-linecap: butt; stroke-dashoffset: 0; stroke-linejoin: miter; stroke-miterlimit: 4; fill: rgb(0,0,0); fill-rule: nonzero; opacity: 1;"  transform=" translate(-246.201, -32.0961)" d="M 250.329 27.8623 L 250.329 45.856 L 242.444 45.856 L 242.444 29.45 C 242.444 28.7796 242.338 28.1622 242.126 27.5977 C 241.95 27.0332 241.667 26.5569 241.279 26.1688 C 240.891 25.7454 240.362 25.4279 239.692 25.2162 C 239.021 24.9692 238.21 24.8457 237.257 24.8457 C 236.446 24.8457 235.687 24.9516 234.982 25.1632 C 234.311 25.3397 233.764 25.5337 233.341 25.7454 L 233.341 45.856 L 225.455 45.856 L 225.455 21.3528 C 226.126 21 227.008 20.6472 228.102 20.2944 C 229.195 19.9063 230.395 19.5711 231.7 19.2888 C 233.006 19.0066 234.311 18.7772 235.617 18.6008 C 236.957 18.4244 238.192 18.3362 239.321 18.3362 C 241.72 18.3362 243.731 18.6538 245.354 19.2888 C 247.013 19.8886 248.247 20.8765 249.059 22.2525 C 249.906 23.6285 250.329 25.4984 250.329 27.8623 Z M 242.232 23.1522 C 243.326 22.1996 244.649 21.3705 246.201 20.6648 C 247.754 19.9239 249.394 19.3594 251.123 18.9713 C 252.852 18.5479 254.457 18.3362 255.939 18.3362 C 258.338 18.3362 260.349 18.6538 261.972 19.2888 C 263.63 19.8886 264.865 20.8765 265.677 22.2525 C 266.523 23.6285 266.947 25.4984 266.947 27.8623 L 266.947 45.856 L 259.061 45.856 L 259.061 29.45 C 259.061 28.7796 258.956 28.1622 258.744 27.5977 C 258.567 27.0332 258.285 26.5569 257.897 26.1688 C 257.509 25.7454 256.98 25.4279 256.309 25.2162 C 255.639 24.9692 254.828 24.8457 253.875 24.8457 C 253.063 24.8457 252.305 24.9692 251.599 25.2162 C 250.929 25.4279 250.382 25.7101 249.959 26.0629 L 242.232 23.1522 Z" stroke-linecap="round" />
</g>
		<g transform="matrix(1 0 0 1 136.5845 7.80625)" id="JSOHfsjaaflME5hciOeTL"  >
<path style="stroke: none; stroke-width: 1; stroke-dasharray: none; stroke-linecap: butt; stroke-dashoffset: 0; stroke-linejoin: miter; stroke-miterlimit: 4; fill: rgb(0,0,0); fill-rule: nonzero; opacity: 1;"  transform=" translate(-287.0845, -36.80625)" d="M 288.381 46.6499 C 287.852 46.6499 287.076 46.597 286.053 46.4911 C 285.03 46.3853 283.971 46.1559 282.877 45.8031 C 281.784 45.415 280.849 44.8329 280.072 44.0567 L 281.66 41.5693 L 281.66 55.435 L 273.933 55.435 L 273.933 24.7399 C 273.933 23.5756 274.269 22.5877 274.939 21.7762 C 275.609 20.9647 276.527 20.2944 277.691 19.7651 C 278.855 19.2359 280.196 18.8478 281.713 18.6008 C 283.265 18.3186 284.924 18.1775 286.688 18.1775 C 289.369 18.1775 291.715 18.6361 293.727 19.5534 C 295.773 20.4355 297.361 21.935 298.49 24.0519 C 299.654 26.1688 300.236 29.0619 300.236 32.7312 C 300.236 35.4832 299.76 37.9176 298.807 40.0345 C 297.855 42.1162 296.496 43.7391 294.732 44.9034 C 293.003 46.0677 290.886 46.6499 288.381 46.6499 Z M 286.053 40.2991 C 287.464 40.2991 288.628 40.0522 289.546 39.5582 C 290.463 39.0643 291.151 38.2528 291.61 37.1238 C 292.104 35.9595 292.351 34.4071 292.351 32.4666 C 292.351 30.8436 292.174 29.4676 291.821 28.3386 C 291.469 27.2096 290.851 26.3452 289.969 25.7454 C 289.122 25.1103 287.923 24.7928 286.37 24.7928 C 284.677 24.7928 283.46 24.9692 282.719 25.322 C 282.013 25.6396 281.66 26.0629 281.66 26.5922 L 281.66 39.1878 C 282.331 39.5759 283.071 39.8581 283.883 40.0345 C 284.694 40.2109 285.418 40.2991 286.053 40.2991 Z" stroke-linecap="round" />
</g>
</g>
</g>
</svg>
