<svg width="1440" height="800" viewBox="0 0 1440 800" fill="none" xmlns="http://www.w3.org/2000/svg">
<path opacity="0.2" fill-rule="evenodd" clip-rule="evenodd" d="M-232.807 -1140.66C-339.529 -809.258 -446.268 -477.83 -553.012 -146.367C-141.817 -212.64 -99.5206 380.996 194.184 520.906C483.846 658.89 779.799 370.45 1110.63 448.248C1366.59 508.437 1452.41 926.486 1680.94 1062.81C1804.98 678.628 1928.4 209.312 2052.45 -174.873C1952.87 -232.232 1895.48 -320.817 1840.34 -402.679C1822.21 -431.414 1804.07 -460.156 1785.94 -488.903C1548.41 -565.585 1310.87 -642.28 1073.3 -718.979C1046.21 -707.48 1019.12 -695.982 992.031 -684.477C884.339 -642.358 729.194 -556.55 574.763 -628.181C442.829 -689.375 383.35 -795.365 321.246 -894C304.86 -921.88 288.468 -949.765 272.076 -977.65C103.795 -1031.98 -64.4976 -1086.32 -232.807 -1140.66Z" fill="url(#paint0_linear_238_6112)"/>
<path opacity="0.2" fill-rule="evenodd" clip-rule="evenodd" d="M2372.51 2340.47C2397.53 1908.14 2422.55 1475.77 2447.58 1043.35C1973.19 1251.54 1736.91 549.998 1339.6 473.251C947.756 397.562 681.488 837.255 258.875 846.884C-68.0941 854.335 -301.964 377.8 -619.675 285.015C-649.073 786.311 -651.132 1389.91 -680.529 1891.21C-542.724 1929.17 -445.964 2017.91 -354.012 2099.26C-323.207 2128.19 -292.401 2157.13 -261.586 2186.08C48.3352 2204.25 358.295 2222.41 668.277 2240.58C697.297 2218.28 726.324 2195.98 755.35 2173.67C871.861 2089.33 1031.86 1937.57 1240.17 1975.6C1418.12 2008.08 1522.83 2117.12 1628.4 2216.49C1656.84 2244.94 1685.28 2273.4 1713.72 2301.85C1933.3 2314.73 2152.89 2327.6 2372.51 2340.47Z" fill="url(#paint1_linear_238_6112)"/>
<defs>
<linearGradient id="paint0_linear_238_6112" x1="412.837" y1="1165.01" x2="856.559" y2="-107.512" gradientUnits="userSpaceOnUse">
<stop stop-color="#B152DD"/>
<stop offset="1" stop-color="#FCF7FF" stop-opacity="0"/>
</linearGradient>
<linearGradient id="paint1_linear_238_6112" x1="875.219" y1="-233.988" x2="738.308" y2="1436.69" gradientUnits="userSpaceOnUse">
<stop stop-color="#B152DD" stop-opacity="0.8"/>
<stop offset="1" stop-color="#FCF7FF" stop-opacity="0"/>
</linearGradient>
</defs>
</svg>
